<svg width="511" height="150" viewBox="0 0 511 126" fill="none" xmlns="http://www.w3.org/2000/svg">
    <path d="M64.2 83.7L69.8 89C66.7333 93.2 62.7 96.5333 57.7 99C52.7667 101.4 47.3333 102.6 41.4 102.6C36.2667 102.6 31.5 101.667 27.1 99.8C22.7667 97.9333 18.9667 95.3333 15.7 92C12.5 88.6 10 84.6333 8.2 80.1C6.4 75.5667 5.5 70.6333 5.5 65.3C5.5 59.9667 6.4 55.0333 8.2 50.5C10.0667 45.9 12.6333 41.9333 15.9 38.6C19.1667 35.2 22.9667 32.5667 27.3 30.7C31.7 28.8333 36.4667 27.9 41.6 27.9C47.5333 27.9 52.9333 29.1333 57.8 31.6C62.7333 34 66.7333 37.3 69.8 41.5L64.2 46.8C61.7333 43.1333 58.6 40.2333 54.8 38.1C51 35.9667 46.6 34.9 41.6 34.9C36.2667 34.9 31.4667 36.2333 27.2 38.9C23 41.5 19.6667 45.1 17.2 49.7C14.7333 54.2333 13.5 59.4333 13.5 65.3C13.5 71.1 14.7333 76.3 17.2 80.9C19.6667 85.4333 23 89.0333 27.2 91.7C31.4667 94.3 36.2667 95.6 41.6 95.6C46.6 95.6 51 94.5333 54.8 92.4C58.6 90.2667 61.7333 87.3667 64.2 83.7ZM104.626 102.6C99.6258 102.6 95.1591 101.467 91.2258 99.2C87.2924 96.9333 84.1924 93.8333 81.9258 89.9C79.7258 85.9667 78.6258 81.4667 78.6258 76.4C78.6258 71.3333 79.7258 66.8333 81.9258 62.9C84.1924 58.9667 87.2924 55.8667 91.2258 53.6C95.1591 51.3333 99.6258 50.2 104.626 50.2C109.692 50.2 114.159 51.3333 118.026 53.6C121.959 55.8667 125.026 58.9667 127.226 62.9C129.492 66.8333 130.626 71.3333 130.626 76.4C130.626 81.4667 129.492 85.9667 127.226 89.9C125.026 93.8333 121.959 96.9333 118.026 99.2C114.159 101.467 109.692 102.6 104.626 102.6ZM104.626 96.1C108.226 96.1 111.392 95.2667 114.126 93.6C116.859 91.9333 118.992 89.6333 120.526 86.7C122.059 83.7 122.826 80.2667 122.826 76.4C122.826 72.5333 122.059 69.1333 120.526 66.2C118.992 63.2 116.859 60.8667 114.126 59.2C111.392 57.5333 108.226 56.7 104.626 56.7C101.026 56.7 97.8591 57.5333 95.1258 59.2C92.3924 60.8667 90.2591 63.2 88.7258 66.2C87.1924 69.1333 86.4258 72.5333 86.4258 76.4C86.4258 80.2667 87.1924 83.7 88.7258 86.7C90.2591 89.6333 92.3924 91.9333 95.1258 93.6C97.8591 95.2667 101.026 96.1 104.626 96.1ZM149.752 101H142.352V51.8H149.752V101ZM146.052 38.6C144.585 38.6 143.318 38.1 142.252 37.1C141.185 36.0333 140.652 34.7667 140.652 33.3C140.652 31.7667 141.185 30.5 142.252 29.5C143.318 28.4333 144.585 27.9 146.052 27.9C147.585 27.9 148.852 28.4333 149.852 29.5C150.918 30.5 151.452 31.7667 151.452 33.3C151.452 34.7667 150.918 36.0333 149.852 37.1C148.852 38.1 147.585 38.6 146.052 38.6ZM208.838 101H201.438V72.6C201.438 67.3333 200.238 63.3667 197.838 60.7C195.438 58.0333 192.205 56.7 188.138 56.7C185.205 56.7 182.438 57.4667 179.838 59C177.238 60.5333 175.138 62.9333 173.538 66.2C171.938 69.4667 171.138 73.7 171.138 78.9V101H163.738V51.8H171.038V66.7H169.738C170.538 62.6333 171.905 59.4 173.838 57C175.838 54.6 178.172 52.8667 180.838 51.8C183.572 50.7333 186.438 50.2 189.438 50.2C195.438 50.2 200.172 52.0667 203.638 55.8C207.105 59.4667 208.838 64.8 208.838 71.8V101Z" fill="url(#paint0_linear_1_29)"/>
    <path d="M248 34C253.8 34 258.8 35.2 263 37.6C267.2 39.9333 270.7 43.4 273.5 48L266.8 53.2C264.333 48.9333 261.533 45.9333 258.4 44.2C255.333 42.4 251.6 41.5 247.2 41.5C243.667 41.5 240.733 42 238.4 43C236.133 44 234.467 45.3333 233.4 47C232.333 48.6 231.8 50.4333 231.8 52.5C231.8 54.8333 232.533 56.9 234 58.7C235.467 60.4333 238.4 61.8 242.8 62.8L257.1 66C263.433 67.4 267.833 69.5333 270.3 72.4C272.833 75.2 274.1 78.7 274.1 82.9C274.1 86.6333 273.033 89.9667 270.9 92.9C268.833 95.7667 265.9 98 262.1 99.6C258.3 101.2 253.833 102 248.7 102C243.9 102 239.667 101.367 236 100.1C232.4 98.7667 229.3 97 226.7 94.8C224.1 92.6 221.967 90.1333 220.3 87.4L227.3 81.7C228.567 84.2333 230.2 86.4667 232.2 88.4C234.2 90.3333 236.6 91.8333 239.4 92.9C242.267 93.9667 245.533 94.5 249.2 94.5C252.6 94.5 255.533 94.1 258 93.3C260.533 92.4333 262.467 91.2 263.8 89.6C265.133 87.9333 265.8 85.9333 265.8 83.6C265.8 81.4667 265.1 79.5667 263.7 77.9C262.3 76.1667 259.667 74.8667 255.8 74L240.3 70.5C236.233 69.5667 232.933 68.3 230.4 66.7C227.933 65.0333 226.133 63.1 225 60.9C223.933 58.6333 223.4 56.2 223.4 53.6C223.4 50.0667 224.367 46.8333 226.3 43.9C228.3 40.9 231.133 38.5 234.8 36.7C238.533 34.9 242.933 34 248 34ZM352.063 51H360.963L343.563 101H335.563L321.463 61.2L308.163 101H300.163L282.763 51H291.663L304.263 91.7L317.863 51H325.863L339.463 91.7L352.063 51ZM376.956 41.4C375.156 41.4 373.69 40.8667 372.556 39.8C371.49 38.6667 370.956 37.2 370.956 35.4C370.956 33.6 371.49 32.1667 372.556 31.1C373.69 29.9667 375.156 29.4 376.956 29.4C378.756 29.4 380.19 29.9667 381.256 31.1C382.39 32.1667 382.956 33.6 382.956 35.4C382.956 37.2 382.39 38.6667 381.256 39.8C380.19 40.8667 378.756 41.4 376.956 41.4ZM380.956 51V101H372.956V51H380.956ZM399.519 122V51H406.519L407.219 63.2L406.119 61.8C406.985 59.4667 408.285 57.4333 410.019 55.7C411.752 53.9 413.852 52.5 416.319 51.5C418.785 50.5 421.452 50 424.319 50C428.385 50 432.119 51.0333 435.519 53.1C438.985 55.1667 441.752 58.1333 443.819 62C445.885 65.8667 446.919 70.5333 446.919 76C446.919 81.4 445.852 86.0667 443.719 90C441.652 93.8667 438.885 96.8333 435.419 98.9C431.952 100.967 428.152 102 424.019 102C419.885 102 416.252 101 413.119 99C410.052 96.9333 407.852 94.3333 406.519 91.2L407.519 89.7V122H399.519ZM423.219 95C428.152 95 431.985 93.2667 434.719 89.8C437.519 86.3333 438.919 81.7333 438.919 76C438.919 70.2667 437.552 65.6667 434.819 62.2C432.152 58.7333 428.385 57 423.519 57C420.319 57 417.519 57.8 415.119 59.4C412.719 60.9333 410.852 63.1333 409.519 66C408.185 68.8 407.519 72.1333 407.519 76C407.519 79.8 408.152 83.1333 409.419 86C410.752 88.8667 412.585 91.1 414.919 92.7C417.319 94.2333 420.085 95 423.219 95ZM483.114 102C478.381 102 474.147 100.967 470.414 98.9C466.747 96.8333 463.881 93.8667 461.814 90C459.747 86.0667 458.714 81.4 458.714 76C458.714 70.6 459.747 65.9667 461.814 62.1C463.881 58.1667 466.714 55.1667 470.314 53.1C473.914 51.0333 478.014 50 482.614 50C487.281 50 491.247 51 494.514 53C497.847 55 500.381 57.7333 502.114 61.2C503.847 64.6 504.714 68.4333 504.714 72.7C504.714 73.8333 504.681 74.8667 504.614 75.8C504.547 76.7333 504.447 77.5667 504.314 78.3H463.914V71.2H500.814L496.714 72C496.714 67.2 495.381 63.5 492.714 60.9C490.114 58.3 486.681 57 482.414 57C479.147 57 476.314 57.7667 473.914 59.3C471.581 60.7667 469.747 62.9333 468.414 65.8C467.147 68.6 466.514 72 466.514 76C466.514 79.9333 467.181 83.3333 468.514 86.2C469.847 89.0667 471.714 91.2667 474.114 92.8C476.581 94.2667 479.514 95 482.914 95C486.581 95 489.547 94.3 491.814 92.9C494.147 91.5 496.014 89.6 497.414 87.2L503.714 90.9C502.447 93.1667 500.814 95.1333 498.814 96.8C496.881 98.4667 494.581 99.7667 491.914 100.7C489.314 101.567 486.381 102 483.114 102Z" fill="url(#paint1_linear_1_29)"/>
    <defs>
        <linearGradient id="paint0_linear_1_29" x1="204" y1="22.5" x2="3.47863" y2="84.3388" gradientUnits="userSpaceOnUse">
            <stop stop-color="#171717"/>
            <stop offset="1" stop-color="#414141"/>
        </linearGradient>
        <linearGradient id="paint1_linear_1_29" x1="220.097" y1="33.0714" x2="499.273" y2="97.481" gradientUnits="userSpaceOnUse">
            <stop stop-color="#EF4A75"/>
            <stop offset="1" stop-color="#FD5564"/>
        </linearGradient>
    </defs>
</svg>
